HIERARCHY
ROOT Hips
{
	OFFSET 0.000000 0.000000 0.000000
	CHANNELS 6 Xposition Yposition Zposition Zrotation Yrotation Xrotation 
	JOINT LHipJoint
	{
		OFFSET 0.000000 0.000000 0.000000
		CHANNELS 3 Zrotation Yrotation Xrotation
		JOINT LeftUpLeg
		{
			OFFSET 1.363060 -1.794630 0.839290
			CHANNELS 3 Zrotation Yrotation Xrotation
			JOINT LeftLeg
			{
				OFFSET 2.448110 -6.726130 0.000000
				CHANNELS 3 Zrotation Yrotation Xrotation
				JOINT LeftFoot
				{
					OFFSET 2.562200 -7.039590 0.000000
					CHANNELS 3 Zrotation Yrotation Xrotation
					JOINT LeftToeBase
					{
						OFFSET 0.157640 -0.433110 2.322550
						CHANNELS 3 Zrotation Yrotation Xrotation
						End Site
						{
							OFFSET 0.000000 0.000000 0.000000
						}
					}
				}
			}
		}
	}
	JOINT RHipJoint
	{
		OFFSET 0.000000 0.000000 0.000000
		CHANNELS 3 Zrotation Yrotation Xrotation
		JOINT RightUpLeg
		{
			OFFSET -1.305520 -1.794630 0.839290
			CHANNELS 3 Zrotation Yrotation Xrotation
			JOINT RightLeg
			{
				OFFSET -2.542530 -6.985550 0.000000
				CHANNELS 3 Zrotation Yrotation Xrotation
				JOINT RightFoot
				{
					OFFSET -2.568260 -7.056230 0.000000
					CHANNELS 3 Zrotation Yrotation Xrotation
					JOINT RightToeBase
					{
						OFFSET -0.164730 -0.452590 2.363150
						CHANNELS 3 Zrotation Yrotation Xrotation
						End Site
						{
							OFFSET 0.000000 0.000000 0.000000
						}
					}
				}
			}
		}
	}
	JOINT LowerBack
	{
		OFFSET 0.000000 0.000000 0.000000
		CHANNELS 3 Zrotation Yrotation Xrotation
		JOINT Spine
		{
			OFFSET 0.028270 2.035590 -0.193380
			CHANNELS 3 Zrotation Yrotation Xrotation
			JOINT Spine1
			{
				OFFSET 0.056720 2.048850 -0.042750
				CHANNELS 3 Zrotation Yrotation Xrotation
				JOINT Neck
				{
					OFFSET 0.000000 0.000000 0.000000
					CHANNELS 3 Zrotation Yrotation Xrotation
					JOINT Neck1
					{
						OFFSET -0.054170 1.746240 0.172020
						CHANNELS 3 Zrotation Yrotation Xrotation
						JOINT Head
						{
							OFFSET 0.104070 1.761360 -0.123970
							CHANNELS 3 Zrotation Yrotation Xrotation
							End Site
							{
								OFFSET 0.000000 0.000000 0.000000
							}
						}
					}
				}
				JOINT LeftShoulder
				{
					OFFSET 0.000000 0.000000 0.000000
					CHANNELS 3 Zrotation Yrotation Xrotation
					JOINT LeftArm
					{
						OFFSET 3.362410 1.200890 -0.311210
						CHANNELS 3 Zrotation Yrotation Xrotation
						JOINT LeftForeArm
						{
							OFFSET 4.983000 -0.000000 -0.000000
							CHANNELS 3 Zrotation Yrotation Xrotation
							JOINT LeftHand
							{
								OFFSET 3.483560 -0.000000 -0.000000
								CHANNELS 3 Zrotation Yrotation Xrotation
								JOINT LeftFingerBase
								{
									OFFSET 0.000000 0.000000 0.000000
									CHANNELS 3 Zrotation Yrotation Xrotation
									JOINT LeftHandIndex1
									{
										OFFSET 0.715260 -0.000000 -0.000000
										CHANNELS 3 Zrotation Yrotation Xrotation
										End Site
										{
											OFFSET 0.000000 0.000000 0.000000
										}
									}
								}
								JOINT LThumb
								{
									OFFSET 0.000000 0.000000 0.000000
									CHANNELS 3 Zrotation Yrotation Xrotation
									End Site
									{
										OFFSET 0.000000 0.000000 0.000000
									}
								}
							}
						}
					}
				}
				JOINT RightShoulder
				{
					OFFSET 0.000000 0.000000 0.000000
					CHANNELS 3 Zrotation Yrotation Xrotation
					JOINT RightArm
					{
						OFFSET -3.136600 1.374050 -0.404650
						CHANNELS 3 Zrotation Yrotation Xrotation
						JOINT RightForeArm
						{
							OFFSET -5.241900 -0.000000 -0.000000
							CHANNELS 3 Zrotation Yrotation Xrotation
							JOINT RightHand
							{
								OFFSET -3.444170 -0.000000 -0.000000
								CHANNELS 3 Zrotation Yrotation Xrotation
								JOINT RightFingerBase
								{
									OFFSET 0.000000 0.000000 0.000000
									CHANNELS 3 Zrotation Yrotation Xrotation
									JOINT RightHandIndex1
									{
										OFFSET -0.622530 -0.000000 -0.000000
										CHANNELS 3 Zrotation Yrotation Xrotation
										End Site
										{
											OFFSET 0.000000 0.000000 0.000000
										}
									}
								}
								JOINT RThumb
								{
									OFFSET 0.000000 0.000000 0.000000
									CHANNELS 3 Zrotation Yrotation Xrotation
									End Site
									{
										OFFSET 0.000000 0.000000 0.000000
									}
								}
							}
						}
					}
				}
			}
		}
	}
}
MOTION
Frames: 10
Frame Time: 0.033333
-1.851926 16.998594 23.619235 0.727599 1.456747 8.965148 -6.008398 9.836759 -2.250617 -16.428977 -3.013406 -7.688503 -10.591693 -9.650827 -25.823791 0.018402 9.993928 19.428770 0.000000 0.000000 0.000000 11.253884 -6.155444 -3.713943 9.414279 2.539642 -7.567118 -18.855983 -24.102813 53.242456 17.185113 -48.951471 23.537727 0.000000 0.000000 0.000000 -3.822863 -0.602506 12.811631 3.209805 -0.750481 -3.309368 0.896556 -0.280717 -5.539347 -0.308757 0.102068 -2.166985 3.540520 -0.090578 4.251112 0.000000 0.000000 0.000000 3.962480 12.796225 9.640982 -71.639963 -7.243948 9.713640 6.630435 -89.742546 0.180004 4.907069 -12.259241 0.084763 4.967636 -12.238998 0.000000 0.000000 0.000000 0.000000 0.000000 0.000000 0.000000 -2.669213 -15.309620 7.161835 64.122944 7.664402 12.965533 29.455619 54.905868 0.261307 0.732282 10.347846 0.129620 0.724943 10.351535 0.000000 0.000000 0.000000 0.000000 0.000000 0.000000 0.000000 
-1.857170 17.030359 23.825195 1.145088 1.283703 9.121388 -5.603945 10.089273 -2.638421 -17.460729 -3.000246 -7.446563 -10.435286 -8.972450 -23.861992 -0.143865 8.499358 16.342689 0.000000 0.000000 0.000000 11.356745 -6.446711 -2.952178 8.590920 2.515198 -7.897994 -18.525308 -24.003758 52.589385 17.116700 -49.495632 24.440690 0.000000 0.000000 0.000000 -3.980455 -0.521510 12.599699 3.070992 -0.794560 -3.144732 0.756159 -0.296045 -5.812172 -0.447218 0.118796 -1.872071 3.601392 -0.099005 4.359535 0.000000 0.000000 0.000000 3.722239 12.962759 9.605642 -71.409645 -6.997902 10.648700 5.660939 -89.292514 0.206456 4.733090 -12.398394 0.098034 4.792004 -12.379563 0.000000 0.000000 0.000000 0.000000 0.000000 0.000000 0.000000 -2.432004 -15.600105 7.101442 63.902484 7.585914 12.979538 29.561810 54.682172 0.262100 0.753921 10.331945 0.130028 0.746765 10.335655 0.000000 0.000000 0.000000 0.000000 0.000000 0.000000 0.000000 
-1.862826 17.063207 24.027181 1.533470 1.121474 9.256283 -5.249486 10.348322 -3.002562 -18.418774 -2.996888 -7.247892 -10.218363 -8.274721 -21.883195 -0.261304 7.080284 13.400555 0.000000 0.000000 0.000000 11.489725 -6.702001 -2.226602 7.768033 2.439382 -8.179501 -18.189756 -23.915978 51.901733 17.000235 -50.026000 25.357858 0.000000 0.000000 0.000000 -4.153321 -0.471712 12.377936 2.950891 -0.835851 -2.993942 0.666768 -0.324411 -5.963739 -0.505620 0.121780 -1.712224 3.611664 -0.104207 4.413492 0.000000 0.000000 0.000000 3.564852 13.023783 9.589184 -71.285476 -6.948470 10.936277 5.436556 -89.173750 0.214009 4.693772 -12.434743 0.101815 4.752275 -12.416242 0.000000 0.000000 0.000000 0.000000 0.000000 0.000000 0.000000 -2.310365 -15.711771 7.085143 63.802630 7.457113 13.282489 29.488068 55.289360 0.268980 0.755388 10.412272 0.133443 0.748273 10.416072 0.000000 0.000000 0.000000 0.000000 0.000000 0.000000 0.000000 
-1.867672 17.096619 24.224455 1.888934 0.964808 9.371942 -4.950724 10.606421 -3.338439 -19.287584 -3.000203 -7.091620 -9.956561 -7.567835 -19.916204 -0.340378 5.753033 10.630791 0.000000 0.000000 0.000000 11.651010 -6.922598 -1.535347 6.953026 2.324279 -8.416425 -17.856958 -23.835363 51.190862 16.832476 -50.531402 26.288209 0.000000 0.000000 0.000000 -4.336518 -0.451394 12.141837 2.846484 -0.872413 -2.853244 0.628102 -0.362571 -5.996178 -0.486701 0.112272 -1.686887 3.572820 -0.106057 4.413882 0.000000 0.000000 0.000000 3.489235 12.976096 9.593593 -71.269884 -7.091360 10.580954 5.962742 -89.394684 0.202674 4.791115 -12.370704 0.096109 4.850503 -12.351434 0.000000 0.000000 0.000000 0.000000 0.000000 0.000000 0.000000 -2.299606 -15.643718 7.107179 63.825317 7.277659 13.876285 29.196034 56.721015 0.281908 0.732894 10.586434 0.139843 0.725657 10.590390 0.000000 0.000000 0.000000 0.000000 0.000000 0.000000 0.000000 
-1.871765 17.130018 24.416239 2.208359 0.808098 9.468788 -4.709753 10.853154 -3.641701 -20.055297 -3.004255 -6.970296 -9.654903 -6.865997 -17.999670 -0.386935 4.531277 8.058351 0.000000 0.000000 0.000000 11.839012 -7.107807 -0.877964 6.153119 2.179333 -8.610261 -17.530498 -23.761600 50.467656 16.616031 -51.005136 27.224061 0.000000 0.000000 0.000000 -4.528053 -0.458112 11.887007 2.754431 -0.901557 -2.718356 0.646372 -0.407664 -5.912711 -0.388974 0.089565 -1.796256 3.480479 -0.104593 4.358681 0.000000 0.000000 0.000000 3.500950 12.810876 9.618221 -71.367313 -7.438071 9.551758 7.244048 -89.952231 0.171616 5.022289 -12.195059 0.080503 5.083756 -12.173929 0.000000 0.000000 0.000000 0.000000 0.000000 0.000000 0.000000 -2.399757 -15.386895 7.156029 63.974430 7.045079 14.768002 28.588687 58.987810 0.300717 0.675738 10.850922 0.149137 0.668138 10.855096 0.000000 0.000000 0.000000 0.000000 0.000000 0.000000 0.000000 
-1.874033 17.163461 24.602600 2.500539 0.671903 9.556289 -4.529605 11.081674 -3.924114 -20.726423 -3.018916 -6.892354 -9.336179 -6.162989 -16.100952 -0.407190 3.398165 5.660033 0.000000 0.000000 0.000000 12.044789 -7.265079 -0.237815 5.344723 1.994125 -8.769935 -17.151107 -23.710750 49.702922 16.364738 -51.429224 28.122998 0.000000 0.000000 0.000000 -4.702052 -0.472682 11.622423 2.680830 -0.929463 -2.583857 0.665499 -0.450280 -5.825442 -0.254834 0.063418 -1.935535 3.368026 -0.100944 4.272572 0.000000 0.000000 0.000000 3.506745 12.610814 9.647162 -71.455089 -7.742739 8.616320 -171.637388 -89.582202 -179.856283 5.222643 -12.031677 0.066486 5.285844 -12.008913 0.000000 0.000000 0.000000 0.000000 0.000000 0.000000 0.000000 -2.529329 -15.098920 7.206359 64.163727 6.799380 15.644823 27.814515 61.265601 0.318537 0.597021 11.108341 0.157923 0.588867 11.112702 0.000000 0.000000 0.000000 0.000000 0.000000 0.000000 0.000000 
-1.873936 17.196470 24.783421 2.763902 0.551663 9.634833 -4.408467 11.283217 -4.183874 -21.295553 -3.038985 -6.848372 -9.010859 -5.468739 -14.247240 -0.405662 2.360711 3.441018 0.000000 0.000000 0.000000 12.267409 -7.393973 0.387324 4.531866 1.775780 -8.896385 -16.722663 -23.678828 48.902868 16.082048 -51.803459 28.986646 0.000000 0.000000 0.000000 -4.859275 -0.493247 11.344426 2.626151 -0.954701 -2.444917 0.685879 -0.488699 -5.735966 -0.079339 0.032642 -2.109160 3.231650 -0.095151 4.152383 0.000000 0.000000 0.000000 3.504601 12.375254 9.682290 -71.532689 -7.998871 7.784644 -170.677190 -89.205341 -179.880745 5.394786 -11.885995 0.054195 5.459441 -11.861812 0.000000 0.000000 0.000000 0.000000 0.000000 0.000000 0.000000 -2.690564 -14.777532 7.257152 64.395035 6.541890 16.489353 26.870192 63.542146 0.334813 0.494385 11.355740 0.165923 0.485426 11.360242 0.000000 0.000000 0.000000 0.000000 0.000000 0.000000 0.000000 
-1.871923 17.228712 24.958197 2.997873 0.432437 9.708137 -4.342345 11.456107 -4.420053 -21.763447 -3.059788 -6.834083 -8.681154 -4.791361 -12.465319 -0.387225 1.424721 1.404762 0.000000 0.000000 0.000000 12.505894 -7.508396 1.007101 3.720755 1.546606 -9.011140 -16.258619 -23.654461 48.083995 15.777058 -52.128548 29.811371 0.000000 0.000000 0.000000 -5.003086 -0.515302 11.045471 2.589278 -0.973407 -2.294500 0.708421 -0.518874 -5.647155 0.140814 -0.003990 -2.320371 3.067699 -0.087506 3.996501 0.000000 0.000000 0.000000 3.493211 12.107393 9.725215 -71.600587 -8.204489 7.059321 -169.866146 -88.910532 -179.901732 5.541880 -11.761438 0.043644 5.607770 -11.736025 0.000000 0.000000 0.000000 0.000000 0.000000 0.000000 0.000000 -2.883621 -14.421403 7.306146 64.667432 6.275798 17.282213 25.761032 65.801142 0.349018 0.366434 11.589558 0.172872 0.356368 11.594135 0.000000 0.000000 0.000000 0.000000 0.000000 0.000000 0.000000 
-1.868417 17.259838 25.126955 3.202510 0.310693 9.774509 -4.325088 11.591963 -4.632564 -22.131960 -3.072976 -6.834139 -8.350423 -4.141368 -10.783735 -0.356070 0.591431 -0.450675 0.000000 0.000000 0.000000 12.759003 -7.607150 1.623014 2.913165 1.308677 -9.111678 -15.758329 -23.636663 47.248161 15.456874 -52.407834 30.593685 0.000000 0.000000 0.000000 -5.136816 -0.537206 10.721746 2.571974 -0.984567 -2.123778 0.734271 -0.539362 -5.561896 0.413620 -0.048319 -2.577517 2.869192 -0.078222 3.799628 0.000000 0.000000 0.000000 3.470034 11.806721 9.777308 -71.659051 -8.353254 6.452455 -169.209018 -88.698922 -179.918887 5.665018 -11.662747 0.035012 5.731963 -11.636286 0.000000 0.000000 0.000000 0.000000 0.000000 0.000000 0.000000 -3.112557 -14.027771 7.353416 64.983882 6.003743 18.003946 24.491644 68.032085 0.360637 0.211503 11.806850 0.178511 0.199977 11.811414 0.000000 0.000000 0.000000 0.000000 0.000000 0.000000 0.000000 
-1.863629 17.289987 25.290327 3.385346 0.226653 9.854524 -4.355161 11.671690 -4.849597 -22.412959 -3.086360 -6.847536 -8.023469 -3.513096 -9.168563 -0.315449 -0.162640 -2.155192 0.000000 0.000000 0.000000 13.012664 -7.716754 2.235194 2.129395 1.082112 -9.222583 -15.183276 -23.603316 46.405967 15.200397 -52.722009 31.257444 0.000000 0.000000 0.000000 -5.226687 -0.524689 10.425478 2.602781 -0.990462 -1.969609 0.632014 -0.527453 -5.612551 0.653802 -0.074598 -2.717124 2.728360 -0.068347 3.621893 0.000000 0.000000 0.000000 3.288755 11.616993 9.823781 -71.520376 -8.027731 7.295048 -170.130647 -89.187690 -179.893185 5.535291 -11.835161 0.047869 5.601421 -11.809729 0.000000 0.000000 0.000000 0.000000 0.000000 0.000000 0.000000 -3.274991 -13.838795 7.407450 65.272377 5.722458 18.442135 23.525271 69.519818 0.366614 0.088989 11.948226 0.181374 0.076227 11.952707 0.000000 0.000000 0.000000 0.000000 0.000000 0.000000 0.000000 
